<?xml version="1.0" encoding="UTF-8"?>
<svg width="128" height="128" viewBox="0 0 18 18" version="1.1" xmlns="http://www.w3.org/2000/svg" xmlns:xlink="http://www.w3.org/1999/xlink">
    <title>icon_list_qunzu</title>
    <g id="icon_list_qunzu" stroke="none" stroke-width="1" fill="none" fill-rule="evenodd">
        <g id="编组" stroke="#1986FF" stroke-width="1.6">
            <g transform="translate(1.000000, 1.000000)">
                <path d="M5.42410714,1.12892157 C6.53459398,1.12892157 7.53995112,1.57903529 8.26768656,2.30677073 C8.99542199,3.03450616 9.44553571,4.03986331 9.44553571,5.15035014 C9.44553571,6.26083698 8.99542199,7.26619412 8.26768656,7.99392955 C7.53995112,8.72166499 6.53459398,9.17177871 5.42410714,9.17177871 C4.31362031,9.17177871 3.30826316,8.72166499 2.58052773,7.99392955 C1.8527923,7.26619412 1.40267857,6.26083698 1.40267857,5.15035014 C1.40267857,4.03986331 1.8527923,3.03450616 2.58052773,2.30677073 C3.30826316,1.57903529 4.31362031,1.12892157 5.42410714,1.12892157 Z" id="椭圆形备份-2"></path>
                <path d="M11.4285122,8.77940821 C11.4607258,8.7657959 11.492701,8.75173012 11.5244298,8.73721888 C11.5563173,8.72263511 11.5879559,8.70760141 11.6193375,8.69212591 C11.7680534,8.6187884 11.9109988,8.53552898 12.0473096,8.44321193 C13.0072621,7.79308014 13.6381677,6.6937336 13.6381677,5.44703115 C13.6381677,3.73565552 12.4493111,2.30195222 10.8524189,1.92674229" id="椭圆形备份-4" stroke-linecap="round" stroke-linejoin="round"></path>
                <path d="M10.8482143,14.7932073 C10.8482143,11.7975556 8.4197588,9.36910014 5.42410714,9.36910014 C2.42845549,9.36910014 0,11.7975556 0,14.7932073" id="椭圆形备份-3" stroke-linecap="round" stroke-linejoin="round"></path>
                <path d="M16.048882,14.7932073 C16.048882,11.9283831 14.0960326,9.39191073 11.4168758,8.77940821" id="椭圆形备份" stroke-linecap="round" stroke-linejoin="round"></path>
            </g>
        </g>
    </g>
</svg>